# Blender 5.0.1
# www.blender.org
mtllib space_ship.mtl
o Spaceship_Orange
v -0.300000 -0.200000 1.000000
v -0.300000 0.200000 1.000000
v -0.030000 -0.040000 -1.500000
v -0.030000 0.040000 -1.500000
v 0.300000 -0.200000 1.000000
v 0.300000 0.200000 1.000000
v 0.030000 -0.040000 -1.500000
v 0.030000 0.040000 -1.500000
v -1.250000 -0.075000 2.100000
v -1.250000 0.075000 2.100000
v -1.250000 -0.075000 0.900000
v -1.250000 0.075000 0.900000
v 1.250000 -0.075000 2.100000
v 1.250000 0.075000 2.100000
v 1.250000 -0.075000 0.900000
v 1.250000 0.075000 0.900000
v -0.150000 0.125000 0.450000
v -0.150000 0.375000 0.450000
v -0.150000 0.125000 -0.050000
v -0.150000 0.375000 -0.050000
v 0.150000 0.125000 0.450000
v 0.150000 0.375000 0.450000
v 0.150000 0.125000 -0.050000
v 0.150000 0.375000 -0.050000
v 0.000000 0.350000 0.950000
v 0.000000 0.350000 1.450000
v 0.175000 0.303109 0.950000
v 0.175000 0.303109 1.450000
v 0.303109 0.175000 0.950000
v 0.303109 0.175000 1.450000
v 0.350000 0.000000 0.950000
v 0.350000 -0.000000 1.450000
v 0.303109 -0.175000 0.950000
v 0.303109 -0.175000 1.450000
v 0.175000 -0.303109 0.950000
v 0.175000 -0.303109 1.450000
v 0.000000 -0.350000 0.950000
v 0.000000 -0.350000 1.450000
v -0.175000 -0.303109 0.950000
v -0.175000 -0.303109 1.450000
v -0.303109 -0.175000 0.950000
v -0.303109 -0.175000 1.450000
v -0.350000 0.000000 0.950000
v -0.350000 -0.000000 1.450000
v -0.303109 0.175000 0.950000
v -0.303109 0.175000 1.450000
v -0.175000 0.303109 0.950000
v -0.175000 0.303109 1.450000
vn -0.9942 -0.0000 -0.1074
vn -0.0000 -0.0000 -1.0000
vn 0.9942 -0.0000 -0.1074
vn -0.0000 -0.0000 1.0000
vn -0.0000 -0.9980 -0.0639
vn -0.0000 0.9980 -0.0639
vn -1.0000 -0.0000 -0.0000
vn 1.0000 -0.0000 -0.0000
vn -0.0000 -1.0000 -0.0000
vn -0.0000 1.0000 -0.0000
vn 0.2588 0.9659 -0.0000
vn 0.7071 0.7071 -0.0000
vn 0.9659 0.2588 -0.0000
vn 0.9659 -0.2588 -0.0000
vn 0.7071 -0.7071 -0.0000
vn 0.2588 -0.9659 -0.0000
vn -0.2588 -0.9659 -0.0000
vn -0.7071 -0.7071 -0.0000
vn -0.9659 -0.2588 -0.0000
vn -0.9659 0.2588 -0.0000
vn -0.7071 0.7071 -0.0000
vn -0.2588 0.9659 -0.0000
vt 0.625000 0.000000
vt 0.375000 0.250000
vt 0.375000 0.000000
vt 0.625000 0.250000
vt 0.375000 0.500000
vt 0.625000 0.500000
vt 0.375000 0.750000
vt 0.625000 0.750000
vt 0.375000 1.000000
vt 0.125000 0.750000
vt 0.125000 0.500000
vt 0.875000 0.500000zzz
vt 1.000000 1.000000
vt 0.916667 0.500000
vt 1.000000 0.500000
vt 0.916667 1.000000
vt 0.833333 0.500000
vt 0.833333 1.000000
vt 0.750000 0.500000
vt 0.750000 1.000000
vt 0.666667 0.500000
vt 0.666667 1.000000
vt 0.583333 0.500000
vt 0.583333 1.000000
vt 0.500000 0.500000
vt 0.500000 1.000000
vt 0.416667 0.500000
vt 0.333333 1.000000
vt 0.333333 0.500000
vt 0.250000 1.000000
vt 0.250000 0.500000
vt 0.166667 1.000000
vt 0.166667 0.500000
vt 0.042154 0.370000
vt 0.250000 0.010000
vt 0.457846 0.370000
vt 0.083333 1.000000
vt 0.083333 0.500000
vt 0.000000 0.500000
vt 0.990000 0.250000
vt 0.630000 0.042154
vt 0.630000 0.457846
vt 0.625000 1.000000
vt 0.875000 0.750000
vt 0.416667 1.000000
vt 0.370000 0.457846
vt 0.250000 0.490000
vt 0.130000 0.457846
vt 0.010000 0.250000
vt 0.042154 0.130000
vt 0.130000 0.042154
vt 0.370000 0.042154
vt 0.457846 0.130000
vt 0.490000 0.250000
vt 0.000000 1.000000
vt 0.750000 0.490000
vt 0.870000 0.457846
vt 0.957846 0.370000
vt 0.957846 0.130000
vt 0.870000 0.042154
vt 0.750000 0.010000
vt 0.542154 0.130000
vt 0.510000 0.250000
vt 0.542154 0.370000
s 0
usemtl ShipOrange
f 2/1/1 3/2/1 1/3/1
f 4/4/2 7/5/2 3/2/2
f 8/6/3 5/7/3 7/5/3
f 6/8/4 1/9/4 5/7/4
f 7/5/5 1/10/5 3/11/5
f 4/12/6 6/8/6 8/6/6
f 10/1/7 11/2/7 9/3/7
f 12/4/2 15/5/2 11/2/2
f 16/6/8 13/7/8 15/5/8
f 14/8/4 9/9/4 13/7/4
f 15/5/9 9/10/9 11/11/9
f 12/12/10 14/8/10 16/6/10
f 2/1/1 4/4/1 3/2/1
f 4/4/2 8/6/2 7/5/2
f 8/6/3 6/8/3 5/7/3
f 6/8/4 2/43/4 1/9/4
f 7/5/5 5/7/5 1/10/5
f 4/12/6 2/44/6 6/8/6
f 10/1/7 12/4/7 11/2/7
f 12/4/2 16/6/2 15/5/2
f 16/6/8 14/8/8 13/7/8
f 14/8/4 10/43/4 9/9/4
f 15/5/9 13/7/9 9/10/9
f 12/12/10 10/44/10 14/8/10
usemtl ShipBlue
f 18/1/7 19/2/7 17/3/7
f 20/4/2 23/5/2 19/2/2
f 24/6/8 21/7/8 23/5/8
f 22/8/4 17/9/4 21/7/4
f 23/5/9 17/10/9 19/11/9
f 20/12/10 22/8/10 24/6/10
f 26/13/11 27/14/11 25/15/11
f 28/16/12 29/17/12 27/14/12
f 30/18/13 31/19/13 29/17/13
f 32/20/14 33/21/14 31/19/14
f 34/22/15 35/23/15 33/21/15
f 36/24/16 37/25/16 35/23/16
f 38/26/17 39/27/17 37/25/17
f 39/27/18 42/28/18 41/29/18
f 41/29/19 44/30/19 43/31/19
f 43/31/20 46/32/20 45/33/20
f 46/34/4 38/35/4 30/36/4
f 45/33/21 48/37/21 47/38/21
f 48/37/22 25/39/22 47/38/22
f 31/40/2 39/41/2 47/42/2
f 18/1/7 20/4/7 19/2/7
f 20/4/2 24/6/2 23/5/2
f 24/6/8 22/8/8 21/7/8
f 22/8/4 18/43/4 17/9/4
f 23/5/9 21/7/9 17/10/9
f 20/12/10 18/44/10 22/8/10
f 26/13/11 28/16/11 27/14/11
f 28/16/12 30/18/12 29/17/12
f 30/18/13 32/20/13 31/19/13
f 32/20/14 34/22/14 33/21/14
f 34/22/15 36/24/15 35/23/15
f 36/24/16 38/26/16 37/25/16
f 38/26/17 40/45/17 39/27/17
f 39/27/18 40/45/18 42/28/18
f 41/29/19 42/28/19 44/30/19
f 43/31/20 44/30/20 46/32/20
f 30/36/4 28/46/4 26/47/4
f 26/47/4 48/48/4 30/36/4
f 48/48/4 46/34/4 30/36/4
f 46/34/4 44/49/4 42/50/4
f 42/50/4 40/51/4 38/35/4
f 38/35/4 36/52/4 34/53/4
f 34/53/4 32/54/4 30/36/4
f 46/34/4 42/50/4 38/35/4
f 38/35/4 34/53/4 30/36/4
f 45/33/21 46/32/21 48/37/21
f 48/37/22 26/55/22 25/39/22
f 47/42/2 25/56/2 27/57/2
f 27/57/2 29/58/2 31/40/2
f 31/40/2 33/59/2 35/60/2
f 35/60/2 37/61/2 39/41/2
f 39/41/2 41/62/2 43/63/2
f 43/63/2 45/64/2 39/41/2
f 45/64/2 47/42/2 39/41/2
f 47/42/2 27/57/2 31/40/2
f 31/40/2 35/60/2 39/41/2
