# Blender 5.0.1
# www.blender.org
mtllib torpedo.mtl
o Torpedo_Red
v 0.000000 0.015000 -0.699999
v 0.000000 0.119999 0.500001
v 0.010607 0.010607 -0.700000
v 0.084853 0.084851 0.500000
v 0.015000 0.000000 -0.700000
v 0.120000 -0.000001 0.500000
v 0.010607 -0.010606 -0.700000
v 0.084853 -0.084854 0.500000
v 0.000000 -0.015000 -0.700001
v 0.000000 -0.120001 0.499999
v -0.010607 -0.010606 -0.700000
v -0.084853 -0.084854 0.500000
v -0.015000 0.000000 -0.700000
v -0.120000 -0.000001 0.500000
v -0.010607 0.010607 -0.700000
v -0.084853 0.084851 0.500000
vn 0.3814 0.9209 -0.0806
vn 0.9209 0.3814 -0.0806
vn 0.9209 -0.3814 -0.0806
vn 0.3814 -0.9209 -0.0806
vn -0.3814 -0.9209 -0.0806
vn -0.9209 -0.3814 -0.0806
vn -0.0000 -0.0000 1.0000
vn -0.9209 0.3814 -0.0806
vn -0.3814 0.9209 -0.0806
vn -0.0000 -0.0000 -1.0000
vt 1.000000 0.500000
vt 0.875000 1.000000
vt 0.875000 0.500000
vt 0.750000 1.000000
vt 0.750000 0.500000
vt 0.625000 1.000000
vt 0.625000 0.500000
vt 0.500000 1.000000
vt 0.500000 0.500000
vt 0.375000 0.500000
vt 0.375000 1.000000
vt 0.250000 0.500000
vt 0.419706 0.080294
vt 0.490000 0.250000
vt 0.010000 0.250000
vt 0.250000 1.000000
vt 0.125000 0.500000
vt 0.125000 1.000000
vt 0.000000 0.500000
vt 0.580294 0.080294
vt 0.510000 0.250000
vt 0.580294 0.419706
vt 1.000000 1.000000
vt 0.419706 0.419706
vt 0.250000 0.490000
vt 0.080294 0.419706
vt 0.080294 0.080294
vt 0.250000 0.010000
vt 0.000000 1.000000
vt 0.750000 0.490000
vt 0.919706 0.419706
vt 0.990000 0.250000
vt 0.919706 0.080294
vt 0.750000 0.010000
s 0
usemtl TorpedoRed
f 1/1/1 4/2/1 3/3/1
f 3/3/2 6/4/2 5/5/2
f 5/5/3 8/6/3 7/7/3
f 7/7/4 10/8/4 9/9/4
f 10/8/5 11/10/5 9/9/5
f 12/11/6 13/12/6 11/10/6
f 8/13/7 6/14/7 14/15/7
f 14/16/8 15/17/8 13/12/8
f 16/18/9 1/19/9 15/17/9
f 11/20/10 13/21/10 15/22/10
f 1/1/1 2/23/1 4/2/1
f 3/3/2 4/2/2 6/4/2
f 5/5/3 6/4/3 8/6/3
f 7/7/4 8/6/4 10/8/4
f 10/8/5 12/11/5 11/10/5
f 12/11/6 14/16/6 13/12/6
f 6/14/7 4/24/7 2/25/7
f 2/25/7 16/26/7 6/14/7
f 16/26/7 14/15/7 6/14/7
f 14/15/7 12/27/7 10/28/7
f 10/28/7 8/13/7 14/15/7
f 14/16/8 16/18/8 15/17/8
f 16/18/9 2/29/9 1/19/9
f 15/22/10 1/30/10 3/31/10
f 3/31/10 5/32/10 15/22/10
f 5/32/10 7/33/10 15/22/10
f 7/33/10 9/34/10 15/22/10
f 9/34/10 11/20/10 15/22/10
